General
Unique ID                                : 140106116837798006011689770768687479780 (0x696774E27D9BD1C292B10C1EDB1CBBE4)
Complete name                            : 12012 - SHINE [NTSC DVD 480i PCM 2.0 MPEG-2 REMUX-SEKAI].mkv
Format                                   : Matroska
Format version                           : Version 4
File size                                : 210 MiB
Duration                                 : 3 min 45 s
Overall bit rate mode                    : Variable
Overall bit rate                         : 7 832 kb/s
Frame rate                               : 29.970 FPS
Title                                    : 12012 - SHINE [NTSC DVD 480i PCM 2.0 MPEG-2 REMUX-SEKAI]
Encoded date                             : 2026-01-16 16:46:08 UTC
Writing application                      : mkvmerge v97.0 ('You Don't Have A Clue') 64-bit
Writing library                          : libebml v1.4.5 + libmatroska v1.7.1
Website                                  : https://sekai-archivist.blogspot.com/

Video
ID                                       : 1
ID in the original source medium         : 224 (0xE0)
Format                                   : MPEG Video
Format version                           : Version 2
Format profile                           : Main@Main
Format settings                          : CustomMatrix / BVOP
Format settings, BVOP                    : Yes
Format settings, Matrix                  : Custom
Format settings, GOP                     : Variable
Format settings, picture structure       : Frame
Codec ID                                 : V_MPEG2
Codec ID/Info                            : MPEG 1 or 2 Video
Duration                                 : 3 min 45 s
Bit rate mode                            : Variable
Bit rate                                 : 6 293 kb/s
Maximum bit rate                         : 9 800 kb/s
Width                                    : 720 pixels
Height                                   : 480 pixels
Display aspect ratio                     : 4:3
Frame rate mode                          : Constant
Frame rate                               : 29.970 (30000/1001) FPS
Standard                                 : NTSC
Color space                              : YUV
Chroma subsampling                       : 4:2:0
Bit depth                                : 8 bits
Scan type                                : Interlaced
Scan order                               : Top Field First
Compression mode                         : Lossy
Bits/(Pixel*Frame)                       : 0.608
Time code of first frame                 : 01:00:11:00
Time code source                         : Group of pictures header
Stream size                              : 169 MiB (80%)
Language                                 : Japanese
Default                                  : Yes
Forced                                   : No
Original source medium                   : DVD-Video

Audio
ID                                       : 2
ID in the original source medium         : 189 (0xBD)160 (0xA0)
Format                                   : PCM
Format settings                          : Little / Signed
Codec ID                                 : A_PCM/INT/LIT
Duration                                 : 3 min 45 s
Bit rate mode                            : Constant
Bit rate                                 : 1 536 kb/s
Channel(s)                               : 2 channels
Sampling rate                            : 48.0 kHz
Frame rate                               : 25.001 FPS (1920 SPF)
Bit depth                                : 16 bits
Stream size                              : 41.2 MiB (20%)
Language                                 : Japanese
Default                                  : Yes
Forced                                   : No
Original source medium                   : DVD-Video


